<?xml version="1.0" encoding="utf-8"?>
<!-- Generator: Adobe Illustrator 16.0.3, SVG Export Plug-In . SVG Version: 6.00 Build 0)  -->
<!DOCTYPE svg PUBLIC "-//W3C//DTD SVG 1.0//EN" "http://www.w3.org/TR/2001/REC-SVG-20010904/DTD/svg10.dtd">
<svg version="1.0" id="Layer_1" xmlns="http://www.w3.org/2000/svg" xmlns:xlink="http://www.w3.org/1999/xlink" x="0px" y="0px"
	 width="518px" height="670px" viewBox="0 0 518 670" enable-background="new 0 0 518 670" xml:space="preserve">
<g>
	<path fill="none" stroke="#000000" stroke-width="0.25" stroke-miterlimit="10" d="M259,371.396l-4.707,4.707
		c-1.754-0.352-5.759-1.284-8.545-2.956c-2.736-1.642-5.636-4.335-6.813-5.449l2.105-7.184l7.308,2.477l5.944,3.84L259,371.396z"/>
	<path fill="none" stroke="#000000" stroke-width="0.25" stroke-miterlimit="10" d="M259,335h-4.707v1.981l2.229,3.097H259V335z"/>
	<path fill="none" stroke="#000000" stroke-width="0.25" stroke-miterlimit="10" d="M254.293,336.981l2.229,3.097l-2.229,13.623
		l-5.944,9.289l-7.308-2.477l3.221-9.537l5.449-10.898L254.293,336.981z"/>
	<path fill="none" stroke="#000000" stroke-width="0.25" stroke-miterlimit="10" d="M234.106,370.298l4.83-2.601l2.105-7.184
		l-6.936-2.354l-4.954,2.725l-2.245,6.813L234.106,370.298z"/>
	<path fill="none" stroke="#000000" stroke-width="0.25" stroke-miterlimit="10" d="M234.106,358.16l6.936,2.354l3.221-9.537
		v-10.898L239.184,335l-5.078,5.078V358.16z"/>
	<path fill="none" stroke="#000000" stroke-width="0.25" stroke-miterlimit="10" d="M263.706,366.83l5.945-3.84l7.307-2.477
		l2.105,7.184c-1.176,1.114-4.075,3.808-6.812,5.449c-2.786,1.672-6.791,2.604-8.546,2.956L259,371.396L263.706,366.83z"/>
	<polygon fill="none" stroke="#000000" stroke-width="0.25" stroke-miterlimit="10" points="261.477,340.078 259,340.078 
		256.523,340.078 254.293,353.701 254.293,366.83 259,371.396 263.706,366.83 263.706,353.701 	"/>
	<path fill="none" stroke="#000000" stroke-width="0.25" stroke-miterlimit="10" d="M259,340.078h2.477l2.229-3.097V335H259V340.078
		z"/>
	<path fill="none" stroke="#000000" stroke-width="0.25" stroke-miterlimit="10" d="M268.289,340.078l5.449,10.898l3.22,9.537
		l-7.307,2.477l-5.945-9.289l-2.229-13.623l2.229-3.097L268.289,340.078z"/>
	<path fill="none" stroke="#000000" stroke-width="0.25" stroke-miterlimit="10" d="M291.094,367.697l-2.245-6.813l-4.954-2.725
		l-6.937,2.354l2.105,7.184l4.831,2.601L291.094,367.697z"/>
	<path fill="none" stroke="#000000" stroke-width="0.25" stroke-miterlimit="10" d="M283.895,340.078L278.817,335l-5.078,5.078
		v10.898l3.22,9.537l6.937-2.354V340.078z"/>
	<polygon fill="none" stroke="#000000" stroke-width="0.25" stroke-miterlimit="10" points="249.711,329.922 244.262,329.922 
		239.184,335 244.262,340.078 249.711,340.078 254.293,336.981 254.293,335 254.293,333.019 	"/>
	<path fill="none" stroke="#000000" stroke-width="0.25" stroke-miterlimit="10" d="M254.293,303.169l-5.944,3.84l-7.308,2.477
		l-2.105-7.184c1.177-1.115,4.076-3.808,6.813-5.45c2.786-1.672,6.791-2.605,8.545-2.956l4.707,4.707L254.293,303.169z"/>
	<path fill="none" stroke="#000000" stroke-width="0.25" stroke-miterlimit="10" d="M259,329.922h-2.478l-2.229,3.097V335H259
		V329.922z"/>
	<path fill="none" stroke="#000000" stroke-width="0.25" stroke-miterlimit="10" d="M249.711,329.922l-5.449-10.899l-3.221-9.537
		l7.308-2.477l5.944,9.289l2.229,13.624l-2.229,3.097L249.711,329.922z"/>
	<path fill="none" stroke="#000000" stroke-width="0.25" stroke-miterlimit="10" d="M226.906,302.303l2.245,6.812l4.954,2.725
		l6.936-2.353l-2.105-7.184l-4.83-2.601L226.906,302.303z"/>
	<path fill="none" stroke="#000000" stroke-width="0.25" stroke-miterlimit="10" d="M234.106,329.922l5.078,5.078l5.078-5.078
		v-10.899l-3.221-9.537l-6.936,2.353V329.922z"/>
	<polygon fill="none" stroke="#000000" stroke-width="0.25" stroke-miterlimit="10" points="273.739,329.922 268.289,329.922 
		263.706,333.019 263.706,335 263.706,336.981 268.289,340.078 273.739,340.078 278.817,335 	"/>
	<path fill="none" stroke="#000000" stroke-width="0.25" stroke-miterlimit="10" d="M259,298.604l4.706-4.707
		c1.755,0.351,5.76,1.284,8.546,2.956c2.736,1.642,5.636,4.335,6.812,5.45l-2.105,7.184l-7.307-2.477l-5.945-3.84L259,298.604z"/>
	<polygon fill="none" stroke="#000000" stroke-width="0.25" stroke-miterlimit="10" points="259,298.604 254.293,303.169 
		254.293,316.298 256.523,329.922 259,329.922 261.477,329.922 263.706,316.298 263.706,303.169 	"/>
	<path fill="none" stroke="#000000" stroke-width="0.25" stroke-miterlimit="10" d="M259,335h4.706v-1.981l-2.229-3.097H259V335z"/>
	<path fill="none" stroke="#000000" stroke-width="0.25" stroke-miterlimit="10" d="M263.706,333.019l-2.229-3.097l2.229-13.624
		l5.945-9.289l7.307,2.477l-3.22,9.537l-5.449,10.899L263.706,333.019z"/>
	<path fill="none" stroke="#000000" stroke-width="0.25" stroke-miterlimit="10" d="M283.895,299.702l-4.831,2.601l-2.105,7.184
		l6.937,2.353l4.954-2.725l2.245-6.812L283.895,299.702z"/>
	<path fill="none" stroke="#000000" stroke-width="0.25" stroke-miterlimit="10" d="M283.895,311.839l-6.937-2.353l-3.22,9.537
		v10.899l5.078,5.078l5.078-5.078V311.839z"/>
</g>
</svg>
